<svg xmlns="http://www.w3.org/2000/svg" version="1.1" xmlns:xlink="http://www.w3.org/1999/xlink" xmlns:svgjs="http://svgjs.dev/svgjs" width="1500" height="1500" viewBox="0 0 1500 1500"><rect width="1500" height="1500" fill="#7234c0"></rect><g transform="matrix(0.6666666666666666,0,0,0.6666666666666666,250,250)"><svg viewBox="0 0 280 280" data-background-color="#7234c0" preserveAspectRatio="xMidYMid meet" height="1500" width="1500" xmlns="http://www.w3.org/2000/svg" xmlns:xlink="http://www.w3.org/1999/xlink"><g id="tight-bounds" transform="matrix(1,0,0,1,0,0)"><svg viewBox="0 0 280 280" height="280" width="280"><g><svg viewBox="0 0 280 280" height="280" width="280"><g><svg viewBox="0 0 280 280" height="280" width="280"><g id="textblocktransform"><svg viewBox="0 0 280 280" height="280" width="280" id="textblock"><g><svg viewBox="0 0 280 280" height="280" width="280"><g transform="matrix(1,0,0,1,74.00336708925556,78.42155171926356)"><svg viewBox="0 0 131.99326582148888 123.15689656147288" height="123.15689656147288" width="131.99326582148888"><g id="icon-0"><svg xmlns="http://www.w3.org/2000/svg" xmlns:xlink="http://www.w3.org/1999/xlink" version="1.1" x="0" y="0" viewBox="3.0999999999999943 1.7999999999999954 95.60000000000001 89.2" style="enable-background:new 0 0 100 100;" xml:space="preserve" height="123.15689656147288" width="131.99326582148888" class="icon-xg-0" data-fill-palette-color="accent" id="xg-0"><rect x="55" y="89" width="3" height="2" fill="#552d22" data-fill-palette-color="accent"></rect><path d="M74.8 91H74v-2h0.8c1.6 0 3.1-0.1 4.5-0.3l0.3 2C78.1 90.9 76.5 91 74.8 91z" fill="#552d22" data-fill-palette-color="accent"></path><rect x="67" y="89" width="5" height="2" fill="#552d22" data-fill-palette-color="accent"></rect><rect x="60" y="89" width="5" height="2" fill="#552d22" data-fill-palette-color="accent"></rect><path d="M81.7 90.3l-0.4-2c1.7-0.4 3.2-0.9 4.7-1.5l0.8 1.8C85.2 89.4 83.5 89.9 81.7 90.3z" fill="#552d22" data-fill-palette-color="accent"></path><path d="M88.7 87.7l-1-1.7c1.4-0.8 2.7-1.8 3.9-2.9l1.4 1.4C91.7 85.7 90.3 86.8 88.7 87.7z" fill="#552d22" data-fill-palette-color="accent"></path><path d="M94.4 82.9l-1.6-1.3c1-1.3 1.9-2.6 2.5-4.1l1.8 0.8C96.5 79.9 95.6 81.5 94.4 82.9z" fill="#552d22" data-fill-palette-color="accent"></path><path d="M97.9 76.2L96 75.7c0.4-1.5 0.7-3.1 0.7-4.7l2-0.1C98.6 72.8 98.4 74.5 97.9 76.2z" fill="#552d22" data-fill-palette-color="accent"></path><path d="M96.5 69c-0.2-1.6-0.6-3.2-1.3-4.6l1.8-0.8c0.7 1.7 1.2 3.4 1.4 5.2L96.5 69z" fill="#552d22" data-fill-palette-color="accent"></path><path d="M94.4 62.6c-0.8-1.4-1.8-2.7-3-3.8l1.4-1.4c1.3 1.3 2.4 2.7 3.3 4.2L94.4 62.6z" fill="#552d22" data-fill-palette-color="accent"></path><path d="M90 57.5c-1.3-1-2.7-1.8-4.2-2.5l0.8-1.8c1.7 0.7 3.2 1.6 4.6 2.7L90 57.5z" fill="#552d22" data-fill-palette-color="accent"></path><path d="M83.9 54.4c-1.5-0.5-3.1-0.9-4.8-1.1l0.3-2c1.8 0.2 3.5 0.6 5.2 1.2L83.9 54.4z" fill="#552d22" data-fill-palette-color="accent"></path><path d="M77.2 53.1C76.5 53 75.7 53 75 53h-3v-2h3c0.8 0 1.6 0 2.3 0.1L77.2 53.1z" fill="#552d22" data-fill-palette-color="accent"></path><rect x="65" y="51" width="5" height="2" fill="#552d22" data-fill-palette-color="accent"></rect><path d="M63 53h-4c-0.4 0-0.8 0-1.2 0l0.1-2c0.4 0 0.7 0 1.1 0h4V53z" fill="#552d22" data-fill-palette-color="accent"></path><path d="M55.6 52.8c-1.9-0.3-3.6-0.8-5.2-1.6l0.9-1.8c1.4 0.7 2.9 1.1 4.6 1.4L55.6 52.8z" fill="#552d22" data-fill-palette-color="accent"></path><path d="M48.6 50c-1.6-1.1-2.8-2.5-3.7-4.1l1.8-1c0.7 1.3 1.8 2.5 3.1 3.4L48.6 50z" fill="#552d22" data-fill-palette-color="accent"></path><path d="M44 43.9c-0.3-1.1-0.5-2.2-0.5-3.4 0-0.7 0.1-1.5 0.2-2.2l2 0.4c-0.1 0.6-0.2 1.2-0.2 1.8 0 0.9 0.1 1.9 0.4 2.8L44 43.9z" fill="#552d22" data-fill-palette-color="accent"></path><path d="M46.2 36.9l-1.8-0.8c0.7-1.7 1.8-3.2 3.3-4.5l1.3 1.5C47.7 34.3 46.8 35.5 46.2 36.9z" fill="#552d22" data-fill-palette-color="accent"></path><path d="M50.5 32.1l-1-1.7c1.5-0.9 3.2-1.6 5.1-2l0.4 2C53.3 30.7 51.8 31.3 50.5 32.1z" fill="#552d22" data-fill-palette-color="accent"></path><path d="M56.8 30.1l-0.2-2C57.4 28 58.2 28 59 28h3v2h-3C58.3 30 57.5 30 56.8 30.1z" fill="#552d22" data-fill-palette-color="accent"></path><rect x="64" y="28" width="3" height="2" fill="#552d22" data-fill-palette-color="accent"></rect><path d="M52.5 90.3c-0.2 0-0.4-0.1-0.6-0.2l-14.3-9.3c-3.7 2.5-8.2 3.9-12.8 3.9-12 0-21.7-9-21.7-20.2s9.7-20.2 21.7-20.2 21.7 9 21.7 20.2c0 3-0.7 5.9-2.1 8.6l9 15.5c0.3 0.4 0.2 1-0.2 1.3C53 90.2 52.8 90.3 52.5 90.3zM37.6 78.4c0.2 0 0.4 0.1 0.6 0.2l11 7.2-7-12c-0.2-0.3-0.2-0.7 0-1.1 1.4-2.5 2.1-5.2 2.1-8.1 0-9.9-8.8-18-19.5-18s-19.5 8.1-19.5 18 8.8 18 19.5 18c4.5 0 8.7-1.3 12.1-3.9C37.1 78.5 37.4 78.4 37.6 78.4z" fill="#552d22" data-fill-palette-color="accent"></path><path d="M69.2 28.9c-0.3 0-0.5-0.1-0.8-0.3-0.4-0.4-0.4-0.9-0.2-1.3l5-8.6c-0.7-1.5-1.1-3.2-1.1-4.9 0-6.6 5.8-12 12.9-12 7.1 0 12.9 5.4 12.9 12s-5.8 12-12.9 12c-2.7 0-5.2-0.7-7.3-2.1l-7.9 5.1C69.6 28.8 69.4 28.9 69.2 28.9zM85 3.9c-5.9 0-10.7 4.4-10.7 9.8 0 1.5 0.4 3 1.1 4.4 0.2 0.3 0.2 0.7 0 1.1l-3 5.2 4.6-3c0.4-0.3 0.9-0.2 1.2 0 1.9 1.4 4.2 2.1 6.7 2.1 5.9 0 10.7-4.4 10.7-9.8S90.9 3.9 85 3.9z" fill="#552d22" data-fill-palette-color="accent"></path></svg></g></svg></g><g id="text-0"><path d="M18.039 96.024l17.915-5.801-1.432 4.064-15.419 4.99-1.066 3.024-2.731-0.962 1.065-3.024-8.354-13.226 1.378-3.913 9.505 15.119zM3.822 96.997l26.462 9.321-1.202 3.412-26.462-9.322z" fill="#e5d8d7" data-fill-palette-color="primary"></path><path d="M50.13 48.123l10.385 8.962-2.324 2.693-10.089-8.707c-0.875-0.755-1.731-1.286-2.569-1.594-0.837-0.308-1.664-0.342-2.479-0.102-0.812 0.235-1.619 0.818-2.422 1.748v0c-0.738 0.855-1.213 1.733-1.426 2.634-0.223 0.902-0.226 1.786-0.011 2.651 0.21 0.861 0.599 1.668 1.165 2.422v0l-2.33-1.164 0.504-0.584c-0.576-0.805-0.975-1.693-1.198-2.661-0.222-0.959-0.19-1.968 0.097-3.027 0.282-1.063 0.892-2.138 1.831-3.225v0c1.109-1.285 2.251-2.112 3.426-2.483 1.166-0.37 2.366-0.345 3.6 0.076 1.23 0.426 2.509 1.213 3.84 2.361zM38.964 57.427l12.183 10.513-2.324 2.693-16.219-13.996 2.324-2.693 3.786 3.466z" fill="#e5d8d7" data-fill-palette-color="primary"></path><path d="M88.626 38.838v0c-2.722 1.426-5.173 1.771-7.353 1.035-2.174-0.739-3.984-2.487-5.428-5.244v0l-1.521-2.902c-1.438-2.746-1.835-5.223-1.189-7.431 0.643-2.199 2.319-4.009 5.029-5.429v0c2.722-1.426 5.17-1.777 7.344-1.053 2.177 0.73 3.985 2.467 5.423 5.213v0l1.521 2.903c1.445 2.757 1.849 5.242 1.212 7.452-0.636 2.211-2.316 4.03-5.038 5.456zM87.282 36.273v0c1.686-0.883 2.706-2.055 3.058-3.514 0.352-1.459 0.035-3.129-0.951-5.01v0l-1.697-3.24c-0.98-1.87-2.166-3.069-3.56-3.599-1.397-0.535-2.938-0.361-4.624 0.522v0c-1.669 0.874-2.683 2.039-3.044 3.496-0.364 1.45-0.056 3.11 0.923 4.979v0l1.697 3.24c0.986 1.882 2.181 3.092 3.587 3.63 1.406 0.538 2.943 0.37 4.611-0.504z" fill="#e5d8d7" data-fill-palette-color="primary"></path><path d="M128.363 27.059v0c-1.644 0.206-2.997 0.124-4.06-0.248-1.062-0.365-1.882-1.019-2.458-1.963-0.577-0.951-0.959-2.172-1.147-3.664v0l-1.685-13.421 3.49-0.438 1.632 13.004c0.176 1.399 0.623 2.386 1.342 2.962 0.726 0.582 1.841 0.779 3.346 0.59v0c0.862-0.108 1.675-0.308 2.439-0.599 0.772-0.285 1.484-0.647 2.136-1.086v0l0.052 3.073c-0.639 0.43-1.404 0.806-2.292 1.126-0.889 0.32-1.82 0.542-2.795 0.664zM131.016 4.994l0.028 2.874-15.311 1.922-0.355-2.833zM121.644 0l0.657 6.441-3.38 0.425-0.769-5.963z" fill="#e5d8d7" data-fill-palette-color="primary"></path><path d="M166.018 29.677v0c-3.005-0.643-5.11-1.945-6.316-3.904-1.2-1.958-1.474-4.459-0.822-7.503v0l0.686-3.204c0.649-3.031 1.927-5.189 3.836-6.474 1.9-1.28 4.346-1.6 7.337-0.96v0c3.005 0.643 5.112 1.938 6.321 3.884 1.208 1.953 1.487 4.445 0.838 7.476v0l-0.686 3.204c-0.652 3.044-1.929 5.213-3.832 6.506-1.903 1.294-4.357 1.619-7.362 0.975zM166.625 26.845v0c1.862 0.399 3.394 0.15 4.597-0.747 1.203-0.897 2.027-2.384 2.472-4.461v0l0.766-3.576c0.442-2.064 0.296-3.745-0.437-5.043-0.732-1.304-2.028-2.156-3.89-2.555v0c-1.842-0.394-3.367-0.147-4.576 0.742-1.207 0.882-2.031 2.356-2.473 4.42v0l-0.766 3.576c-0.445 2.077-0.299 3.772 0.439 5.084 0.737 1.312 2.026 2.166 3.868 2.56z" fill="#e5d8d7" data-fill-palette-color="primary"></path><path d="M206.256 47.581v0c-1.102-0.72-1.937-1.529-2.507-2.428-0.568-0.89-0.879-1.843-0.933-2.859-0.054-1.017 0.129-2.035 0.547-3.054v0l-0.973-0.636 2.69-2.228c-0.655 1.112-0.998 2.169-1.03 3.169-0.037 0.997 0.202 1.919 0.717 2.767 0.519 0.842 1.248 1.57 2.188 2.184v0c1.51 0.987 2.953 1.299 4.331 0.938 1.379-0.352 2.626-1.38 3.74-3.086v0l2.241-3.431c1.107-1.694 1.552-3.243 1.336-4.645-0.226-1.4-1.099-2.598-2.621-3.591v0c-0.906-0.592-1.823-0.94-2.752-1.045-0.927-0.095-1.822 0.01-2.685 0.316-0.86 0.316-1.63 0.81-2.309 1.484v0l0.621-2.563 0.864 0.565c0.729-0.689 1.548-1.215 2.456-1.579 0.91-0.355 1.909-0.46 2.996-0.317 1.085 0.135 2.234 0.598 3.447 1.391v0c2.159 1.41 3.364 3.156 3.617 5.236 0.247 2.077-0.463 4.39-2.129 6.94v0l-1.945 2.978c-1.681 2.572-3.529 4.161-5.545 4.767-2.01 0.61-4.131 0.185-6.362-1.273zM200.304 43.848l-3.809 5.83-2.961-1.935 15.851-24.258 2.978 1.946-2.949 4.237-0.564 0.937-4.938 7.557-0.411 0.593z" fill="#e5d8d7" data-fill-palette-color="primary"></path><path d="M249.707 59.27l-16.74 13.368-2.22-2.779 16.74-13.368zM251.342 55.682v0c-0.454-0.569-0.643-1.115-0.565-1.639 0.078-0.524 0.38-0.996 0.908-1.417v0l0.086-0.069c0.538-0.429 1.068-0.622 1.59-0.577 0.523 0.044 1.011 0.351 1.466 0.919v0c0.459 0.574 0.654 1.124 0.585 1.649-0.072 0.519-0.377 0.994-0.915 1.423v0l-0.086 0.069c-0.538 0.429-1.068 0.622-1.591 0.577-0.527-0.049-1.019-0.361-1.478-0.935z" fill="#e5d8d7" data-fill-palette-color="primary"></path><path d="M264.532 105.699l-12.991 4.879-1.24-3.302 4.921-1.688 0.47-0.315 6.388-2.4 1.179-0.421c1.632-0.613 2.684-1.479 3.156-2.598 0.469-1.125 0.367-2.585-0.307-4.38v0c-0.54-1.438-1.242-2.68-2.106-3.726-0.861-1.039-1.739-1.923-2.633-2.65v0l2.945-0.764c0.51 0.408 1.056 0.913 1.64 1.514 0.577 0.604 1.142 1.33 1.695 2.178 0.554 0.848 1.039 1.825 1.455 2.932v0c0.54 1.438 0.824 2.727 0.852 3.865 0.028 1.138-0.169 2.143-0.591 3.016-0.424 0.866-1.048 1.617-1.871 2.255-0.824 0.638-1.811 1.173-2.962 1.605zM247.276 100.534v0c-0.747-1.989-0.838-3.695-0.275-5.12 0.57-1.427 1.752-2.478 3.547-3.152v0l0.591-0.221c1.851-0.695 3.448-0.642 4.791 0.159 1.343 0.801 2.661 2.383 3.955 4.744v0l3.285 6.012-2.359 1.1-3.182-5.794c-0.797-1.456-1.581-2.414-2.353-2.873-0.778-0.457-1.68-0.493-2.705-0.108v0l-0.329 0.124c-1.057 0.397-1.741 1.025-2.053 1.884-0.319 0.862-0.234 1.943 0.255 3.244v0c0.432 1.151 1 2.065 1.704 2.742 0.708 0.669 1.492 1.131 2.351 1.386 0.866 0.253 1.742 0.316 2.629 0.19v0l-2.067 1.365-0.239-0.638c-0.948 0.135-1.899 0.082-2.854-0.159-0.95-0.25-1.834-0.76-2.651-1.53-0.811-0.773-1.492-1.891-2.041-3.355z" fill="#e5d8d7" data-fill-palette-color="primary"></path><path d="M2.516 142.128c0-6.202 5.028-11.23 11.23-11.23 6.202 0 11.23 5.028 11.23 11.23 0 6.202-5.028 11.23-11.23 11.23-6.202 0-11.23-5.028-11.23-11.23z" fill="#e5d8d7" data-fill-palette-color="primary"></path><path d="M255.024 142.128c0-6.202 5.028-11.23 11.23-11.23 6.202 0 11.23 5.028 11.23 11.23 0 6.202-5.028 11.23-11.23 11.23-6.202 0-11.23-5.028-11.23-11.23z" fill="#e5d8d7" data-fill-palette-color="primary"></path></g><g id="text-1"><path d="M26.508 185.868l-10.761 16.539-1.514-4.247 9.262-14.239-1.128-3.161 2.86-1.02 1.127 3.161 15.525 5.261 1.458 4.087-17.706-6.037zM37.433 175.695l-27.69 9.875-1.273-3.567 27.691-9.875z" fill="#e13f2a" data-fill-palette-color="secondary"></path><path d="M55.527 232.842l-10.85 9.435-2.446-2.812 10.54-9.166c0.912-0.793 1.591-1.601 2.037-2.422 0.441-0.826 0.6-1.677 0.476-2.552-0.124-0.875-0.608-1.799-1.454-2.772v0c-0.776-0.892-1.615-1.521-2.518-1.887-0.903-0.357-1.82-0.489-2.749-0.398-0.92 0.092-1.816 0.375-2.687 0.849v0l1.555-2.242 0.533 0.612c0.924-0.485 1.903-0.769 2.936-0.853 1.033-0.084 2.079 0.1 3.136 0.552 1.052 0.457 2.072 1.252 3.058 2.387v0c1.166 1.341 1.854 2.646 2.064 3.915 0.214 1.274 0.009 2.515-0.615 3.722-0.625 1.216-1.63 2.427-3.016 3.632zM47.546 219.877l-12.725 11.066-2.446-2.812 16.944-14.735 2.446 2.812-4.173 3.417z" fill="#e13f2a" data-fill-palette-color="secondary"></path><path d="M78.508 266.102v0c-2.858-1.483-4.625-3.379-5.301-5.686-0.673-2.314-0.257-4.92 1.247-7.82v0l1.578-3.041c1.499-2.887 3.387-4.714 5.667-5.481 2.279-0.766 4.842-0.411 7.688 1.066v0c2.858 1.483 4.626 3.376 5.306 5.678 0.679 2.302 0.27 4.896-1.229 7.784v0l-1.579 3.041c-1.505 2.899-3.397 4.74-5.676 5.521-2.276 0.775-4.843 0.421-7.701-1.062zM79.906 263.408v0c1.767 0.917 3.381 1.092 4.841 0.525 1.464-0.572 2.708-1.846 3.733-3.82v0l1.768-3.406c1.019-1.963 1.339-3.704 0.961-5.225-0.381-1.515-1.454-2.73-3.221-3.647v0c-1.755-0.911-3.364-1.087-4.827-0.53-1.472 0.56-2.718 1.822-3.737 3.784v0l-1.768 3.407c-1.025 1.974-1.344 3.728-0.957 5.26 0.383 1.524 1.453 2.741 3.207 3.651z" fill="#e13f2a" data-fill-palette-color="secondary"></path><path d="M126.061 279.894v0c-1.717-0.21-3.071-0.639-4.062-1.285-0.984-0.645-1.647-1.524-1.989-2.637-0.349-1.106-0.428-2.442-0.236-4.006v0l1.724-14.073 3.66 0.448-1.67 13.636c-0.179 1.459 0.024 2.577 0.608 3.355 0.585 0.772 1.67 1.254 3.255 1.449v0c0.895 0.11 1.769 0.116 2.622 0.018 0.852-0.091 1.666-0.277 2.441-0.559v0l-0.728 3.141c-0.761 0.277-1.635 0.463-2.622 0.557-0.981 0.095-1.982 0.08-3.003-0.045zM134.408 258.152l-0.713 2.931-16.052-1.966 0.364-2.974zM126.167 250.682l-0.984 6.713-3.541-0.433 0.737-6.26z" fill="#e13f2a" data-fill-palette-color="secondary"></path><path d="M171.091 277.039v0c-3.148 0.678-5.717 0.343-7.709-1.005-1.993-1.354-3.333-3.628-4.02-6.822v0l-0.722-3.35c-0.685-3.18-0.393-5.792 0.876-7.835 1.268-2.043 3.47-3.402 6.605-4.076v0c3.148-0.678 5.717-0.346 7.706 0.996 1.99 1.341 3.328 3.602 4.013 6.782v0l0.721 3.35c0.687 3.193 0.402 5.817-0.858 7.872-1.261 2.048-3.465 3.411-6.612 4.088zM170.452 274.071v0c1.946-0.419 3.301-1.312 4.066-2.679 0.763-1.374 0.911-3.148 0.443-5.323v0l-0.807-3.752c-0.465-2.162-1.328-3.708-2.588-4.639-1.258-0.925-2.86-1.178-4.806-0.759v0c-1.933 0.416-3.286 1.305-4.059 2.667-0.778 1.37-0.934 3.136-0.469 5.298v0l0.808 3.752c0.468 2.175 1.339 3.729 2.613 4.664 1.266 0.93 2.866 1.187 4.799 0.771z" fill="#e13f2a" data-fill-palette-color="secondary"></path><path d="M219.003 255.633v0c-1.151 0.754-2.278 1.216-3.38 1.386-1.096 0.167-2.141 0.064-3.135-0.307-1.003-0.373-1.905-0.977-2.706-1.81v0l-1.014 0.664-1.018-3.513c0.798 1.098 1.669 1.873 2.612 2.326 0.949 0.449 1.937 0.605 2.964 0.467 1.024-0.143 2.031-0.539 3.02-1.186v0c1.576-1.032 2.482-2.283 2.717-3.754 0.24-1.475-0.223-3.103-1.39-4.887v0l-2.36-3.605c-1.16-1.772-2.46-2.844-3.902-3.218-1.436-0.377-2.948-0.046-4.536 0.993v0c-0.95 0.622-1.671 1.357-2.161 2.205-0.487 0.854-0.761 1.759-0.821 2.717-0.06 0.957 0.089 1.905 0.448 2.844v0l-2.198-1.675 0.906-0.593c-0.362-0.992-0.523-2.001-0.483-3.025 0.035-1.021 0.348-2.024 0.94-3.01 0.596-0.981 1.528-1.886 2.796-2.717v0c2.258-1.478 4.439-1.903 6.542-1.275 2.101 0.637 4.024 2.288 5.769 4.954v0l2.042 3.118c1.763 2.694 2.515 5.136 2.255 7.326-0.269 2.188-1.571 4.046-3.907 5.575zM212.926 259.778l3.995 6.104-3.102 2.03-16.632-25.412 3.119-2.041 2.829 4.615 0.664 0.942 5.175 7.906 0.4 0.649z" fill="#e13f2a" data-fill-palette-color="secondary"></path><path d="M232.555 211.319l17.518 14.048-2.332 2.907-17.518-14.047zM228.52 210.472v0c-0.481 0.599-0.997 0.917-1.549 0.954-0.552 0.037-1.101-0.164-1.649-0.602v0l-0.093-0.076c-0.563-0.451-0.881-0.946-0.955-1.484-0.079-0.543 0.122-1.114 0.603-1.713v0c0.481-0.599 0.996-0.922 1.547-0.968 0.546-0.05 1.1 0.15 1.663 0.601v0l0.094 0.075c0.563 0.451 0.879 0.949 0.948 1.492 0.074 0.548-0.129 1.121-0.609 1.721z" fill="#e13f2a" data-fill-palette-color="secondary"></path><path d="M258.454 176.378l13.586 5.179-1.321 3.464-5.036-2.091-0.58-0.082-6.685-2.548-1.219-0.486c-1.71-0.652-3.137-0.699-4.279-0.141-1.148 0.556-2.081 1.773-2.797 3.652v0c-0.573 1.504-0.884 2.966-0.931 4.385-0.051 1.41 0.023 2.715 0.224 3.914v0l-2.834-1.456c-0.124-0.669-0.204-1.443-0.241-2.322-0.039-0.873 0.02-1.833 0.176-2.882 0.157-1.048 0.456-2.153 0.899-3.314v0c0.573-1.504 1.242-2.715 2.006-3.632 0.77-0.914 1.623-1.565 2.557-1.952 0.934-0.387 1.946-0.548 3.036-0.484 1.088 0.072 2.234 0.337 3.439 0.796zM268.417 192.411v0c-0.792 2.079-1.906 3.481-3.34 4.206-1.428 0.728-3.082 0.734-4.961 0.018v0l-0.628-0.239c-1.935-0.738-3.148-1.886-3.64-3.446-0.498-1.562-0.438-3.717 0.179-6.463v0l1.589-7.008 2.608 0.78-1.514 6.758c-0.381 1.692-0.427 2.986-0.139 3.882 0.288 0.896 0.971 1.55 2.051 1.961v0l0.337 0.129c1.105 0.421 2.08 0.403 2.926-0.053 0.846-0.457 1.528-1.365 2.047-2.727v0c0.459-1.205 0.647-2.316 0.564-3.334-0.092-1.015-0.387-1.92-0.884-2.718-0.503-0.799-1.15-1.457-1.94-1.972v0l2.573 0.369-0.254 0.665c0.841 0.549 1.551 1.249 2.128 2.098 0.575 0.855 0.914 1.868 1.019 3.037 0.105 1.169-0.136 2.522-0.721 4.057z" fill="#e13f2a" data-fill-palette-color="secondary"></path></g></svg></g></svg></g></svg></g></svg></g><defs></defs></svg><rect width="280" height="280" fill="none" stroke="none" visibility="hidden"></rect></g></svg></g></svg>